<?xml version="1.0" encoding="utf-8"?>
<!-- Generator: Adobe Illustrator 15.1.0, SVG Export Plug-In . SVG Version: 6.00 Build 0)  -->
<!DOCTYPE svg PUBLIC "-//W3C//DTD SVG 1.1//EN" "http://www.w3.org/Graphics/SVG/1.1/DTD/svg11.dtd">
<svg version="1.1" xmlns="http://www.w3.org/2000/svg" xmlns:xlink="http://www.w3.org/1999/xlink" x="0px" y="0px" width="300px"
	 height="85px" viewBox="0 0 300 85" enable-background="new 0 0 300 85" xml:space="preserve">
<g id="Layer_2">
	<rect fill="#FFFFFF" width="300" height="85"/>
</g>
<g id="Layer_1">
	<g>
		<g>
			<path d="M35.569,44.124h11.809v30.841H35.569V44.124z"/>
			<path d="M59.099,64.439c0,0.783,0.131,1.48,0.348,2.047c0.697,1.873,2.788,2.264,4.573,2.264c1.568,0,3.963-0.521,3.963-2.83
				c0-1.611-1.35-2.047-6.707-3.57c-4.92-1.395-10.539-2.744-10.539-9.016c0-7.185,6.14-10.276,12.542-10.276
				c6.75,0,12.715,2.569,12.977,10.146h-9.058c0.174-1.176-0.349-1.96-1.132-2.482c-0.784-0.565-1.873-0.784-2.831-0.784
				c-1.306,0-3.44,0.349-3.44,2.091c0.174,2.221,4.616,2.7,9.015,3.919c4.398,1.219,8.752,3.267,8.752,8.971
				c0,8.1-7.446,10.713-14.37,10.713c-3.527,0-13.587-1.263-13.674-11.191H59.099z"/>
			<path d="M99.219,55.381c-0.175-1.132-1.046-4.572-5.009-4.572c-4.485,0-5.923,4.355-5.923,8.535c0,4.182,1.438,8.535,5.923,8.535
				c3.222,0,4.485-2.264,5.052-5.182h9.406c0,6.271-5.095,12.934-14.196,12.934c-10.06,0-15.764-7.098-15.764-16.287
				c0-9.798,6.183-16.286,15.764-16.286c8.535,0.044,13.237,4.528,14.065,12.323H99.219z"/>
		</g>
		<path fill="#B0B0B0" d="M33.987,38.717c0,0-27.809,26.979-33.045,20.194c-5.236-6.784,12.569-23.503,23.601-33.546
			C35.575,15.321,60.514-3.014,63.516,0.423c1.433,1.641-1.158,4.017-1.158,4.017s1.178-1.285-0.128-2.547
			c-2.037-1.969-17.512,6.978-36.901,24.271C6.043,43.365,2.864,51.172,6.062,54.958C9.259,58.745,33.987,38.717,33.987,38.717z"/>
		<circle fill="#9DCB3B" cx="41.401" cy="33.854" r="7.222"/>
		<g>
			<path fill="#8C8C8C" d="M135.506,46.312h2.641v8.568h-2.641V46.312z"/>
			<path fill="#8C8C8C" d="M143.367,46.312h2.64v6.372h3.793v2.196h-6.433V46.312z"/>
			<path fill="#8C8C8C" d="M154.791,46.312h2.64v6.372h3.793v2.196h-6.433V46.312z"/>
			<path fill="#8C8C8C" d="M166.215,46.312h2.64v8.568h-2.64V46.312z"/>
			<path fill="#8C8C8C" d="M174.087,46.312h2.699l2.496,4.584h0.024v-4.584h2.496v8.568h-2.567l-2.629-4.68h-0.023v4.68h-2.496
				V46.312z"/>
			<path fill="#8C8C8C" d="M191.139,46.108c2.604,0,4.345,1.872,4.345,4.488s-1.74,4.488-4.345,4.488s-4.344-1.872-4.344-4.488
				S188.534,46.108,191.139,46.108z M191.139,52.949c0.673,0,1.704-0.444,1.704-2.353s-1.031-2.352-1.704-2.352
				c-0.672,0-1.704,0.443-1.704,2.352S190.467,52.949,191.139,52.949z"/>
			<path fill="#8C8C8C" d="M200.462,46.312h2.641v8.568h-2.641V46.312z"/>
			<path fill="#8C8C8C" d="M210.423,52.001c0,0.216,0.035,0.408,0.096,0.563c0.192,0.517,0.768,0.624,1.26,0.624
				c0.433,0,1.092-0.144,1.092-0.779c0-0.444-0.371-0.564-1.848-0.984c-1.355-0.384-2.904-0.756-2.904-2.484
				c0-1.979,1.692-2.832,3.457-2.832c1.859,0,3.504,0.708,3.576,2.797h-2.496c0.047-0.324-0.097-0.54-0.312-0.685
				c-0.217-0.156-0.516-0.216-0.78-0.216c-0.36,0-0.948,0.096-0.948,0.576c0.049,0.611,1.272,0.744,2.484,1.08
				s2.412,0.899,2.412,2.472c0,2.232-2.053,2.952-3.96,2.952c-0.972,0-3.744-0.348-3.769-3.084H210.423z"/>
			<path fill="#8C8C8C" d="M137.319,69.241c-0.072,3.527,2.473,4.607,5.592,4.607c1.801,0,4.536-0.983,4.536-3.479
				c0-1.944-1.944-2.712-3.528-3.097l-3.815-0.936c-2.017-0.504-3.864-1.464-3.864-4.128c0-1.681,1.08-4.824,5.904-4.824
				c3.384,0,6.359,1.824,6.336,5.328h-1.633c-0.096-2.616-2.256-3.937-4.68-3.937c-2.232,0-4.296,0.864-4.296,3.408
				c0,1.608,1.2,2.28,2.593,2.616l4.176,1.032c2.424,0.647,4.439,1.704,4.439,4.512c0,1.176-0.48,4.896-6.552,4.896
				c-4.056,0-7.032-1.824-6.841-6H137.319z"/>
			<path fill="#8C8C8C" d="M160.119,66.385c-0.408-1.848-1.536-2.976-3.505-2.976c-2.903,0-4.344,2.64-4.344,5.279
				c0,2.641,1.44,5.28,4.344,5.28c1.873,0,3.408-1.464,3.601-3.528h1.513c-0.408,2.977-2.353,4.801-5.113,4.801
				c-3.791,0-5.856-3-5.856-6.553c0-3.552,2.065-6.552,5.856-6.552c2.641,0,4.681,1.416,5.017,4.248H160.119z"/>
			<path fill="#8C8C8C" d="M163.862,57.745h1.513v2.424h-1.513V57.745z M163.862,62.497h1.513v12.384h-1.513V62.497z"/>
			<path fill="#8C8C8C" d="M169.167,69.097c0.023,2.208,1.176,4.872,4.08,4.872c2.208,0,3.408-1.296,3.888-3.168h1.513
				c-0.648,2.808-2.281,4.44-5.4,4.44c-3.936,0-5.592-3.024-5.592-6.553c0-3.264,1.656-6.552,5.592-6.552
				c3.984,0,5.568,3.48,5.447,6.96H169.167z M177.183,67.825c-0.072-2.28-1.488-4.416-3.936-4.416c-2.473,0-3.84,2.159-4.08,4.416
				H177.183z"/>
			<path fill="#8C8C8C" d="M180.711,62.497h1.513v2.136h0.047c0.553-1.488,2.209-2.496,3.961-2.496c3.479,0,4.535,1.824,4.535,4.776
				v7.968h-1.512v-7.729c0-2.136-0.695-3.743-3.145-3.743c-2.399,0-3.84,1.823-3.887,4.248v7.224h-1.513V62.497z"/>
			<path fill="#8C8C8C" d="M202.358,66.385c-0.408-1.848-1.535-2.976-3.504-2.976c-2.904,0-4.344,2.64-4.344,5.279
				c0,2.641,1.439,5.28,4.344,5.28c1.872,0,3.408-1.464,3.6-3.528h1.513c-0.408,2.977-2.353,4.801-5.112,4.801
				c-3.792,0-5.855-3-5.855-6.553c0-3.552,2.063-6.552,5.855-6.552c2.641,0,4.68,1.416,5.016,4.248H202.358z"/>
			<path fill="#8C8C8C" d="M206.967,69.097c0.024,2.208,1.176,4.872,4.08,4.872c2.208,0,3.407-1.296,3.888-3.168h1.512
				c-0.647,2.808-2.279,4.44-5.399,4.44c-3.937,0-5.593-3.024-5.593-6.553c0-3.264,1.656-6.552,5.593-6.552
				c3.983,0,5.567,3.48,5.448,6.96H206.967z M214.983,67.825c-0.072-2.28-1.488-4.416-3.937-4.416c-2.472,0-3.841,2.159-4.08,4.416
				H214.983z"/>
			<path fill="#8C8C8C" d="M238.022,62.929c-0.576-2.64-2.76-4.152-5.256-4.152c-4.536,0-6.456,3.792-6.456,7.536
				s1.92,7.536,6.456,7.536c3.168,0,5.184-2.448,5.496-5.496h1.632c-0.456,4.2-3.12,6.889-7.128,6.889
				c-5.4,0-8.088-4.248-8.088-8.929c0-4.68,2.688-8.928,8.088-8.928c3.24,0,6.456,1.944,6.888,5.544H238.022z"/>
			<path fill="#8C8C8C" d="M253.19,68.688c0,3.553-2.064,6.553-5.856,6.553s-5.855-3-5.855-6.553c0-3.552,2.063-6.552,5.855-6.552
				S253.19,65.137,253.19,68.688z M242.99,68.688c0,2.641,1.439,5.28,4.344,5.28s4.344-2.64,4.344-5.28
				c0-2.64-1.439-5.279-4.344-5.279S242.99,66.049,242.99,68.688z"/>
			<path fill="#8C8C8C" d="M265.477,74.881h-1.391v-2.232h-0.049c-0.791,1.656-2.424,2.593-4.271,2.593
				c-3.121,0-4.344-1.824-4.344-4.704v-8.04h1.512v8.063c0.072,2.232,0.912,3.408,3.312,3.408c2.592,0,3.719-2.448,3.719-4.968
				v-6.504h1.512V74.881z"/>
			<path fill="#8C8C8C" d="M268.309,62.497h1.512v2.136h0.049c0.553-1.488,2.207-2.496,3.959-2.496c3.48,0,4.537,1.824,4.537,4.776
				v7.968h-1.512v-7.729c0-2.136-0.697-3.743-3.145-3.743c-2.4,0-3.84,1.823-3.889,4.248v7.224h-1.512V62.497z"/>
			<path fill="#8C8C8C" d="M289.957,66.385c-0.408-1.848-1.537-2.976-3.504-2.976c-2.904,0-4.344,2.64-4.344,5.279
				c0,2.641,1.439,5.28,4.344,5.28c1.871,0,3.408-1.464,3.6-3.528h1.512c-0.408,2.977-2.352,4.801-5.111,4.801
				c-3.793,0-5.855-3-5.855-6.553c0-3.552,2.062-6.552,5.855-6.552c2.641,0,4.68,1.416,5.016,4.248H289.957z"/>
			<path fill="#8C8C8C" d="M293.701,57.745h1.512v2.424h-1.512V57.745z M293.701,62.497h1.512v12.384h-1.512V62.497z"/>
			<path fill="#8C8C8C" d="M298.141,57.745h1.512v17.136h-1.512V57.745z"/>
		</g>
		<line fill="none" stroke="#000000" stroke-width="0.5" x1="122.073" y1="36.881" x2="122.073" y2="84.631"/>
	</g>
</g>
</svg>
