<?xml version="1.0" standalone="no"?>
<!DOCTYPE svg PUBLIC "-//W3C//DTD SVG 1.1//EN" "http://www.w3.org/Graphics/SVG/1.1/DTD/svg11.dtd" >
<svg xmlns="http://www.w3.org/2000/svg">
<metadata></metadata>
<defs>
<font id="pluto_sans_cond_lightregular" horiz-adv-x="1443" >
<font-face units-per-em="2048" ascent="1536" descent="-512" />
<missing-glyph horiz-adv-x="419" />
<glyph horiz-adv-x="0" />
<glyph horiz-adv-x="0" />
<glyph unicode="&#xd;" horiz-adv-x="2048" />
<glyph unicode=" "  horiz-adv-x="419" />
<glyph unicode="&#x09;" horiz-adv-x="419" />
<glyph unicode="&#xa0;" horiz-adv-x="419" />
<glyph unicode="!" horiz-adv-x="497" d="M147 90q0 54 26 83.5t75 29.5q48 0 75 -29.5t27 -83.5q0 -55 -27 -84t-75 -29q-101 0 -101 113zM180 1391h133l-16 -975h-100z" />
<glyph unicode="&#x22;" horiz-adv-x="770" d="M152 1393h106l-4 -492h-98zM512 1393h106l-6 -492h-98z" />
<glyph unicode="#" horiz-adv-x="1224" d="M82 330v108h186l113 525h-158v108h180l70 322h102v-13l-65 -309h352l70 322h102v-13l-65 -309h176v-108h-199l-112 -525h167v-108h-190l-70 -330h-102v12l68 318h-355l-69 -330h-105v12l68 318h-164zM375 438h354l111 525h-353z" />
<glyph unicode="$" horiz-adv-x="1083" d="M98 1022q0 149 104 258t296 127v170h88v-166q104 -3 207.5 -33.5t173.5 -72.5l-43 -123q-59 41 -154.5 71t-183.5 33v-528l80 -23q161 -48 240 -128.5t79 -217.5q0 -170 -108 -279t-291 -126v-246h-88v242q-111 4 -215 39t-166 77l33 127q64 -45 157.5 -80.5t190.5 -38.5 v551l-133 39q-267 76 -267 328zM229 1030q0 -166 191 -221l78 -25v498q-131 -17 -200 -86.5t-69 -165.5zM586 109q119 18 190.5 89t71.5 185q0 92 -59 150t-183 92l-20 6v-522z" />
<glyph unicode="%" horiz-adv-x="1505" d="M78 1059q0 164 84.5 258t220.5 94t220.5 -94t84.5 -258t-84.5 -257t-220.5 -93t-220.5 93t-84.5 257zM182 1059q0 -117 55 -181.5t146 -64.5q93 0 147 64t54 182q0 119 -54 183.5t-147 64.5q-92 0 -146.5 -64.5t-54.5 -183.5zM385 0v12l625 1381h116v-13l-626 -1380h-115 zM817 328q0 166 83.5 260t219.5 94t220.5 -94t84.5 -260q0 -163 -84.5 -255.5t-220.5 -92.5t-219.5 92.5t-83.5 255.5zM920 328q0 -117 54 -180.5t146 -63.5q93 0 147 63t54 181q0 121 -54 185.5t-147 64.5q-92 0 -146 -65t-54 -185z" />
<glyph unicode="&#x26;" horiz-adv-x="1282" d="M121 342q0 71 24.5 132t69.5 106.5t92.5 78t108.5 62.5q-47 53 -70 82t-54.5 77t-45 95.5t-13.5 101.5q0 148 94.5 242t258.5 94q157 0 254.5 -92.5t97.5 -241.5q0 -233 -246 -348l-88 -43l314 -352q126 179 182 438l104 -61q-66 -275 -207 -467l211 -238v-20h-155 l-140 159q-171 -165 -393 -165q-184 0 -291.5 97t-107.5 263zM256 356q0 -116 78 -186t209 -70q155 0 293 138l-344 395q-51 -25 -88 -48t-73.5 -56.5t-55.5 -77t-19 -95.5zM365 1069q0 -52 28.5 -112t57.5 -96.5t75 -88.5l117 53q166 76 166 248q0 92 -64.5 156.5 t-158.5 64.5q-104 0 -162.5 -62t-58.5 -163z" />
<glyph unicode="'" horiz-adv-x="409" d="M152 1393h106l-4 -492h-98z" />
<glyph unicode="(" horiz-adv-x="526" d="M111 535q0 175 27.5 336t71 276.5t83.5 192t78 124.5l82 -51q-36 -56 -69.5 -129.5t-70.5 -183.5t-59.5 -257.5t-22.5 -307.5q0 -158 22.5 -306t59.5 -258t71 -185t69 -130l-82 -51q-38 48 -78 125t-83.5 192.5t-71 277t-27.5 335.5z" />
<glyph unicode=")" horiz-adv-x="526" d="M76 -344q35 55 69 130t70.5 185t59 258t22.5 306q0 160 -22.5 307.5t-59 257.5t-70.5 184t-69 129l80 51q38 -48 78 -124.5t83.5 -192t71 -276.5t27.5 -336q0 -174 -27.5 -335.5t-71 -277t-83.5 -192.5t-78 -125z" />
<glyph unicode="*" horiz-adv-x="880" d="M111 1100l28 96l252 -78l-6 275h111l-9 -277l252 80l31 -96l-254 -68l143 -233l-84 -51l-137 237l-135 -237l-82 49l137 237z" />
<glyph unicode="+" horiz-adv-x="1013" d="M106 563v111h347v411h108v-411h346v-111h-346v-409h-108v409h-347z" />
<glyph unicode="," horiz-adv-x="485" d="M139 80q0 56 27.5 86.5t75.5 30.5t76 -33t28 -84q0 -82 -42.5 -223t-78.5 -205l-78 35l80 288q-42 4 -65 33t-23 72z" />
<glyph unicode="-" horiz-adv-x="952" d="M150 563v113h653v-113h-653z" />
<glyph unicode="." horiz-adv-x="483" d="M141 90q0 54 26 83.5t73 29.5q51 0 77.5 -29.5t26.5 -83.5q0 -113 -104 -113q-48 0 -73.5 29t-25.5 84z" />
<glyph unicode="/" horiz-adv-x="876" d="M66 0v12l626 1381h117v-13l-625 -1380h-118z" />
<glyph unicode="0" horiz-adv-x="1251" d="M123 694q0 161 30 291t90.5 226.5t157.5 149t224 52.5q128 0 225.5 -52.5t157 -149.5t89 -226.5t29.5 -290.5q0 -160 -29.5 -288.5t-89 -224.5t-157 -148.5t-225.5 -52.5q-127 0 -224 52.5t-157.5 148.5t-90.5 225t-30 288zM252 694q0 -131 21 -235.5t64.5 -184 t116.5 -122.5t171 -43q99 0 171.5 43t116 122.5t64 184t20.5 235.5q0 133 -20.5 238.5t-64 186.5t-116 125t-171.5 44q-98 0 -171 -44t-116.5 -124.5t-64.5 -186.5t-21 -239z" />
<glyph unicode="1" horiz-adv-x="851" d="M51 1114l506 279h102v-1393h-133v1235l-426 -227z" />
<glyph unicode="2" horiz-adv-x="1114" d="M111 940q5 216 117 344.5t319 128.5q105 0 187.5 -34t134 -94t78 -137.5t26.5 -168.5q0 -134 -60 -243t-194 -236l-397 -379h686v-121h-877v106l490 465q112 104 163.5 195t51.5 205q0 143 -76 230t-221 87q-148 0 -226.5 -100.5t-81.5 -265.5z" />
<glyph unicode="3" horiz-adv-x="1126" d="M123 76l37 117q175 -95 354 -95q153 0 254.5 79.5t101.5 215.5q0 125 -77 195.5t-224 70.5h-309v121h309q122 0 191 74t69 178q0 126 -91 195t-228 69q-102 0 -195 -32t-153 -70l-35 115q72 41 176 72.5t217 31.5q207 0 325 -95.5t118 -268.5q0 -118 -63 -210t-165 -112 q129 -30 200 -117.5t71 -232.5q0 -185 -131.5 -291t-354.5 -106q-195 0 -397 96z" />
<glyph unicode="4" horiz-adv-x="1249" d="M66 307v99l677 987h172v-979h259v-107h-259v-307h-133v307h-716zM205 414h577v850z" />
<glyph unicode="5" horiz-adv-x="1114" d="M98 80l39 117q171 -99 361 -99q72 0 136 18.5t117.5 57t85 106.5t31.5 158q0 149 -98.5 217t-263.5 68h-330l-8 8l49 662h748v-121h-635l-31 -445h221q226 0 355 -93.5t129 -291.5q0 -119 -40 -210t-109.5 -145t-157 -80.5t-189.5 -26.5q-219 0 -410 100z" />
<glyph unicode="6" horiz-adv-x="1212" d="M121 698q0 213 61.5 373.5t182.5 251t288 90.5q127 0 234 -41t168 -92l-47 -111q-51 50 -142.5 87.5t-197.5 37.5q-200 0 -307 -162t-107 -434v-39q19 34 42 65.5t62 70.5t82.5 67.5t104 48t125.5 19.5q202 0 318 -122t116 -339q0 -216 -129 -352.5t-326 -136.5 q-165 0 -285 89.5t-181.5 251t-61.5 377.5zM264 528q30 -197 128 -310.5t253 -113.5q140 0 233 104t93 261q0 164 -89 255t-233 91q-63 0 -121.5 -23t-99 -54.5t-76.5 -74.5t-54.5 -73.5t-33.5 -61.5z" />
<glyph unicode="7" horiz-adv-x="964" d="M68 1272v121h850v-103l-527 -1290h-149v14l526 1258h-700z" />
<glyph unicode="8" horiz-adv-x="1202" d="M121 377q0 146 76 234t217 116q-116 21 -184 112t-68 210q0 173 117.5 268.5t322.5 95.5q203 0 320.5 -95.5t117.5 -268.5q0 -119 -67.5 -210t-184.5 -112q142 -28 218.5 -116t76.5 -234q0 -185 -130.5 -291t-350.5 -106q-221 0 -351 106t-130 291zM254 393 q0 -136 98 -218.5t250 -82.5q151 0 249.5 82.5t98.5 218.5q0 128 -86 202.5t-262 74.5q-174 0 -261 -75t-87 -202zM293 1036q0 -51 17.5 -96.5t53 -83.5t97 -60t141.5 -22q154 0 230.5 76t76.5 186q0 127 -84 195.5t-223 68.5t-224 -68.5t-85 -195.5z" />
<glyph unicode="9" horiz-adv-x="1212" d="M109 924q0 216 128.5 352.5t325.5 136.5q249 0 390 -195.5t141 -523.5q0 -323 -142 -518.5t-393 -195.5q-127 0 -233.5 41t-167.5 92l47 110q51 -50 142.5 -87.5t197.5 -37.5q200 0 306.5 162t106.5 434v37q-19 -33 -42.5 -65t-62 -70.5t-81.5 -66.5t-103 -47t-124 -19 q-203 0 -319.5 122t-116.5 339zM242 924q0 -165 89 -255.5t234 -90.5q63 0 121 22.5t97.5 54t75 74t54 72.5t33.5 61q-28 197 -126 311.5t-251 114.5q-141 0 -234 -103.5t-93 -260.5z" />
<glyph unicode=":" horiz-adv-x="499" d="M147 90q0 53 26 82t73 29q51 0 77.5 -29t26.5 -82q0 -113 -104 -113q-48 0 -73.5 29t-25.5 84zM147 991q0 53 26 82t73 29q51 0 77.5 -29t26.5 -82q0 -112 -104 -112q-48 0 -73.5 28.5t-25.5 83.5z" />
<glyph unicode=";" horiz-adv-x="512" d="M156 80q0 55 27 85t75 30t75 -33t27 -82q0 -83 -41.5 -223t-76.5 -201l-78 35l80 284q-42 4 -65 33t-23 72zM156 991q0 53 25.5 82t72.5 29q51 0 77.5 -29t26.5 -82q0 -112 -104 -112q-98 0 -98 112z" />
<glyph unicode="&#x3c;" horiz-adv-x="1026" d="M88 563v111l789 424h10v-111l-688 -366l688 -367v-111h-10z" />
<glyph unicode="=" horiz-adv-x="1107" d="M156 274v111h796v-111h-796zM156 854v111h796v-111h-796z" />
<glyph unicode="&#x3e;" horiz-adv-x="1026" d="M139 143v111l688 367l-688 366v111h13l786 -424v-111l-786 -420h-13z" />
<glyph unicode="?" horiz-adv-x="833" d="M78 1231q115 182 336 182q148 0 236.5 -93t88.5 -237q0 -90 -31 -163.5t-96 -147.5l-139 -164q-36 -42 -49.5 -71t-13.5 -66q0 -35 6 -55h-113q-12 50 -12 84q0 49 20.5 86t69.5 96l133 162q51 60 71.5 111.5t20.5 123.5q0 94 -60 156.5t-161 62.5q-172 0 -258 -165z M264 90q0 113 98 113q49 0 76 -29.5t27 -83.5q0 -55 -26.5 -84t-76.5 -29q-98 0 -98 113z" />
<glyph unicode="@" horiz-adv-x="1761" d="M104 539q0 210 60 386t165.5 295.5t252 186t317.5 66.5t316 -58t247 -163t159.5 -257.5t57.5 -335.5q0 -163 -31.5 -288.5t-86 -199.5t-122 -111t-145.5 -37q-79 0 -114.5 28t-55.5 94q-44 -59 -116.5 -90.5t-161.5 -31.5q-179 0 -288 138t-109 357q0 222 109.5 363 t287.5 141q183 0 270 -109v93h127v-752q0 -71 18.5 -102t69.5 -31q98 0 173 137.5t75 394.5q0 333 -184.5 527t-495.5 194q-150 0 -277 -56.5t-219.5 -161.5t-144 -263.5t-51.5 -353.5q0 -389 190 -613.5t502 -224.5q175 0 328 86l33 -90q-163 -94 -361 -94q-176 0 -323 65 t-251.5 185t-162.5 296t-58 390zM580 518q0 -167 83 -273t218 -106q72 0 134.5 33.5t100.5 83.5v539q-37 49 -99 79.5t-136 30.5q-136 0 -218.5 -107.5t-82.5 -279.5z" />
<glyph unicode="A" horiz-adv-x="1245" d="M49 0l504 1393h152l479 -1393h-133l-115 340h-633l-121 -340h-133zM342 446h559l-272 809z" />
<glyph unicode="B" horiz-adv-x="1214" d="M190 0v1393h431q188 0 290.5 -89.5t102.5 -269.5q0 -118 -55 -196t-154 -115q145 -26 224 -113.5t79 -240.5q0 -173 -104.5 -271t-303.5 -98h-510zM326 119h360q140 0 212.5 67.5t72.5 188.5q0 137 -83.5 206.5t-238.5 69.5h-323v-532zM326 776h268q133 0 209 64t76 184 q0 126 -70.5 188t-202.5 62h-280v-498z" />
<glyph unicode="C" horiz-adv-x="1257" d="M115 696q0 333 162 525t428 192q141 0 257.5 -61.5t196.5 -163.5l-76 -92q-157 190 -368 190q-217 0 -340 -155t-123 -435t123 -435t340 -155q210 0 368 191l76 -92q-80 -102 -196.5 -163.5t-257.5 -61.5q-266 0 -428 192t-162 524z" />
<glyph unicode="D" horiz-adv-x="1380" d="M190 0v1393h461q132 -1 243.5 -47t194 -132.5t129 -220t46.5 -299.5q0 -165 -46.5 -297.5t-129 -218.5t-194 -132t-243.5 -46h-461zM326 121h311q222 0 355.5 149.5t133.5 423.5q0 276 -133.5 427t-355.5 151h-311v-1151z" />
<glyph unicode="E" horiz-adv-x="1204" d="M190 0v1393h906v-121h-774v-486h647v-120h-647v-545h774v-121h-906z" />
<glyph unicode="F" horiz-adv-x="1140" d="M190 0v1393h871v-121h-739v-570h645v-120h-645v-582h-132z" />
<glyph unicode="G" horiz-adv-x="1366" d="M113 694q0 166 49 303t134.5 227t200.5 139.5t246 49.5q140 0 247 -46.5t202 -139.5l-64 -105q-83 82 -171.5 123t-198.5 41q-224 0 -366 -158.5t-142 -433.5q0 -274 142 -431t360 -157q101 0 197.5 32.5t160.5 86.5v389h-418v121h545v-585q-86 -73 -223.5 -121.5 t-270.5 -48.5q-131 0 -246 49t-200.5 139t-134.5 226t-49 300z" />
<glyph unicode="H" horiz-adv-x="1460" d="M190 0v1393h136v-633h811v633h133v-1393h-133v639h-811v-639h-136z" />
<glyph unicode="I" horiz-adv-x="516" d="M190 0v1393h136v-1393h-136z" />
<glyph unicode="J" horiz-adv-x="1144" d="M55 461l129 12q11 -190 89.5 -281.5t234.5 -91.5q158 0 240.5 96.5t82.5 288.5v908h136v-906q0 -238 -120 -375t-341 -137q-213 0 -326.5 125.5t-124.5 360.5z" />
<glyph unicode="K" horiz-adv-x="1202" d="M190 0v1393h136v-648h141l512 648h141v-21l-542 -688l593 -666v-18h-161l-549 625h-135v-625h-136z" />
<glyph unicode="L" horiz-adv-x="1036" d="M190 0v1393h136v-1272h673v-121h-809z" />
<glyph unicode="M" horiz-adv-x="1652" d="M190 0v1393h132l503 -736l506 736h131v-1393h-135v1167l-485 -704h-31l-485 704v-1167h-136z" />
<glyph unicode="N" horiz-adv-x="1456" d="M190 0v1393h119l821 -1172v1172h136v-1393h-121l-821 1167v-1167h-134z" />
<glyph unicode="O" d="M113 694q0 321 170 520t438 199q177 0 316 -89.5t216.5 -253.5t77.5 -376q0 -210 -77.5 -373t-216.5 -252t-316 -89q-268 0 -438 198t-170 516zM246 694q0 -272 132 -428.5t343 -156.5q212 0 344.5 157t132.5 428q0 274 -132.5 432t-344.5 158q-211 0 -343 -158 t-132 -432z" />
<glyph unicode="P" horiz-adv-x="1204" d="M190 0v1393h510q85 0 159.5 -30t134 -88t94 -153.5t34.5 -216.5q0 -110 -35 -201.5t-93.5 -151.5t-134.5 -93t-159 -33h-374v-426h-136zM326 547h348q131 0 221 97.5t90 260.5q0 179 -88.5 273t-222.5 94h-348v-725z" />
<glyph unicode="Q" d="M113 694q0 321 170 520t438 199q177 0 316 -89.5t216.5 -253.5t77.5 -376q0 -267 -123 -453t-329 -241q4 -5 44.5 -49t55.5 -58.5t55.5 -49.5t69.5 -49.5t72 -28t86 -13.5q112 0 192 35l19 -117q-97 -39 -218 -39q-82 0 -158.5 32t-133 80.5t-102.5 97t-83 89.5t-57 50 q-268 0 -438 198t-170 516zM244 694q0 -271 132.5 -428t344.5 -157t345.5 157t133.5 428q0 274 -133.5 432t-345.5 158t-344.5 -158t-132.5 -432z" />
<glyph unicode="R" horiz-adv-x="1241" d="M190 0v1393h519q178 0 297.5 -117t119.5 -324q0 -184 -110 -300t-275 -128l437 -504v-20h-154l-444 524h-254v-524h-136zM326 635h352q135 0 223 83.5t88 233.5q0 156 -88 238t-223 82h-352v-637z" />
<glyph unicode="S" horiz-adv-x="1101" d="M102 94l33 131q68 -45 175.5 -83t207.5 -38q148 0 246 73.5t98 201.5q0 93 -55.5 154t-175.5 94l-232 63q-282 80 -282 336q0 75 27.5 142.5t80.5 122.5t141.5 87.5t200.5 32.5q111 0 221 -31t181 -75l-41 -121q-63 42 -165 72t-192 30q-159 0 -241 -73t-82 -183 q0 -87 50 -139t153 -82l229 -68q161 -47 240 -132t79 -224q0 -183 -132.5 -294t-344.5 -111q-116 0 -235 36t-185 78z" />
<glyph unicode="T" horiz-adv-x="1087" d="M41 1272v121h1010v-121h-426v-1272h-136v1272h-448z" />
<glyph unicode="U" horiz-adv-x="1374" d="M176 555v838h135v-832q0 -216 92.5 -337.5t282.5 -121.5q127 0 213.5 61.5t125 163t38.5 236.5v830h135v-838q0 -120 -31.5 -223.5t-92.5 -184t-161 -126.5t-227 -46q-170 0 -286 74.5t-170 202.5t-54 303z" />
<glyph unicode="V" horiz-adv-x="1253" d="M61 1393h142l418 -1254l440 1254h145l-506 -1393h-161z" />
<glyph unicode="W" horiz-adv-x="1908" d="M61 1393h142l418 -1241l276 761l-162 480h144l403 -1223l434 1223h144l-504 -1393h-144l-256 756l-274 -756h-143z" />
<glyph unicode="X" horiz-adv-x="1222" d="M57 0v12l459 684l-459 684v13h154l399 -605l400 605h155v-13l-460 -684l460 -684v-12h-157l-398 602l-397 -602h-156z" />
<glyph unicode="Y" horiz-adv-x="1214" d="M49 1380v13h150l409 -680l410 680h147v-13l-491 -788v-592h-133v590z" />
<glyph unicode="Z" horiz-adv-x="1064" d="M94 0v102l707 1170h-707v121h879v-103l-709 -1169h709v-121h-879z" />
<glyph unicode="[" horiz-adv-x="606" d="M172 -385v1839h352v-113h-239v-1613h239v-113h-352z" />
<glyph unicode="\" horiz-adv-x="876" d="M66 1380v13h116l627 -1381v-12h-117z" />
<glyph unicode="]" horiz-adv-x="606" d="M82 -272h237v1613h-237v113h350v-1839h-350v113z" />
<glyph unicode="^" horiz-adv-x="985" d="M121 834v12l315 547h105l321 -547v-12h-123l-250 450l-247 -450h-121z" />
<glyph unicode="_" horiz-adv-x="1167" d="M147 -86h871v-113h-871v113z" />
<glyph unicode="`" horiz-adv-x="1044" d="M383 1518h135l144 -281h-119z" />
<glyph unicode="a" horiz-adv-x="1054" d="M92 305q0 96 37.5 169.5t104 118.5t153.5 67t191 22q89 0 184 -25v52q0 262 -258 262q-162 0 -293 -70l-27 113q69 35 163 55.5t175 20.5q178 0 274.5 -99t96.5 -286v-705h-131v115q-135 -135 -326 -135q-158 0 -251 88t-93 237zM227 317q0 -106 67.5 -166.5t178.5 -60.5 q169 0 289 133v334q-81 25 -176 25q-159 0 -259 -66t-100 -199z" />
<glyph unicode="b" horiz-adv-x="1165" d="M172 0v1454h131v-508q55 64 134.5 104t174.5 40q202 0 321.5 -147.5t119.5 -405.5q0 -259 -120 -408t-321 -149q-96 0 -175 40t-134 105v-125h-131zM303 238q44 -57 116.5 -97.5t153.5 -40.5q159 0 252 115t93 315q0 203 -93 321t-252 118q-81 0 -154 -40.5t-116 -99.5 v-591z" />
<glyph unicode="c" horiz-adv-x="1040" d="M113 537q0 258 132 410.5t349 152.5q201 0 346 -158l-66 -100q-56 65 -122.5 99t-157.5 34q-158 0 -253 -118t-95 -320q0 -203 95.5 -322t254.5 -119q89 0 155.5 34t122.5 99l66 -100q-145 -158 -346 -158q-217 0 -349 154t-132 412z" />
<glyph unicode="d" horiz-adv-x="1167" d="M115 537q0 258 120 405.5t322 147.5q92 0 171 -39.5t136 -102.5v506h131v-1454h-131v125q-54 -66 -133 -105.5t-174 -39.5q-201 0 -321.5 149t-120.5 408zM250 530q0 -200 92 -315t250 -115q81 0 154 38.5t118 94.5v598q-45 59 -117 98.5t-155 39.5q-157 0 -249.5 -118 t-92.5 -321z" />
<glyph unicode="e" horiz-adv-x="1101" d="M113 532q0 250 129.5 409t345.5 159q102 0 180.5 -35t126 -96t71 -139.5t23.5 -170.5q0 -90 -20 -172h-727q6 -187 96 -293t274 -106q165 0 310 127l55 -104q-156 -140 -381 -140q-124 0 -217.5 41.5t-151 117.5t-86 177t-28.5 225zM248 596h612q8 50 8 80 q0 134 -72.5 220.5t-207.5 86.5q-153 0 -243.5 -107t-96.5 -280z" />
<glyph unicode="f" horiz-adv-x="808" d="M84 895v111h188v135q0 160 72 247t217 87q69 0 129.5 -26.5t100.5 -64.5l-39 -112q-84 84 -172 84q-87 0 -132 -54t-45 -157v-139h336v-111h-336v-895h-131v895h-188z" />
<glyph unicode="g" horiz-adv-x="1167" d="M117 573q0 232 120 374.5t318 142.5q95 0 174 -38t133 -100v119h133v-1024q0 -115 -32.5 -203t-90.5 -142t-132 -81t-162 -27q-80 0 -157 20.5t-108.5 36.5t-80.5 46q-8 4 -11 6l33 121q157 -113 309 -113q62 0 114.5 17.5t94.5 54.5t66 100.5t24 149.5v170 q-56 -64 -135 -103t-172 -39q-197 0 -317.5 141.5t-120.5 370.5zM250 573q0 -178 93.5 -285.5t250.5 -107.5q150 0 268 142v501q-117 146 -266 146q-158 0 -252 -107.5t-94 -288.5z" />
<glyph unicode="h" horiz-adv-x="1179" d="M172 0v1454h131v-563q52 94 142.5 146.5t211.5 52.5q179 0 269 -108.5t90 -311.5v-670h-131v647q0 318 -273 318q-116 0 -196 -71.5t-113 -182.5v-711h-131z" />
<glyph unicode="i" horiz-adv-x="475" d="M150 1376q0 88 90 88q84 0 84 -88q0 -86 -84 -86q-90 0 -90 86zM172 0v1071h131v-1071h-131z" />
<glyph unicode="j" horiz-adv-x="475" d="M4 -311q88 56 128 126t40 191v1065h131v-1061q0 -158 -56.5 -254t-166.5 -159zM152 1376q0 88 88 88q84 0 84 -88q0 -86 -84 -86q-88 0 -88 86z" />
<glyph unicode="k" horiz-adv-x="999" d="M172 0v1454h131v-852l461 469h151v-22l-481 -482l506 -544v-23h-160l-477 526v-526h-131z" />
<glyph unicode="l" horiz-adv-x="573" d="M180 205v1249h133v-1221q0 -76 24.5 -106.5t74.5 -30.5q58 0 120 43l15 -106q-77 -53 -178 -53q-94 0 -141.5 52.5t-47.5 172.5z" />
<glyph unicode="m" horiz-adv-x="1814" d="M172 0v1071h131v-174q105 193 336 193q252 0 324 -218q102 218 329 218q186 0 272.5 -101t86.5 -305v-684h-131v664q0 155 -63 228t-200 73q-194 0 -270 -236q2 -14 2 -45v-684h-133v664q0 301 -260 301q-114 0 -187 -67t-106 -179v-719h-131z" />
<glyph unicode="n" horiz-adv-x="1179" d="M172 0v1071h131v-180q52 94 142.5 146.5t211.5 52.5q179 0 269 -108.5t90 -311.5v-670h-131v647q0 318 -271 318q-117 0 -197.5 -71.5t-113.5 -182.5v-711h-131z" />
<glyph unicode="o" horiz-adv-x="1191" d="M113 532q0 261 132 414.5t349 153.5q220 0 353.5 -153.5t133.5 -414.5q0 -258 -133.5 -409.5t-353.5 -151.5q-217 0 -349 152t-132 409zM242 532q0 -202 96.5 -319t255.5 -117q161 0 257.5 117t96.5 319q0 205 -96.5 324t-257.5 119q-159 0 -255.5 -119t-96.5 -324z" />
<glyph unicode="p" horiz-adv-x="1165" d="M172 -385v1456h131v-123q121 146 307 146q200 0 321.5 -149.5t121.5 -407.5q0 -259 -121 -406t-322 -147q-94 0 -173.5 38.5t-133.5 100.5v-508h-131zM303 238q41 -57 114.5 -96.5t155.5 -39.5q159 0 252 118t93 321q0 200 -93 316t-252 116q-82 0 -154.5 -39.5 t-115.5 -97.5v-598z" />
<glyph unicode="q" horiz-adv-x="1167" d="M115 530q0 260 119.5 408.5t320.5 148.5q95 0 174.5 -40.5t134.5 -106.5v131h131v-1456h-131v504q-56 -63 -136.5 -102.5t-172.5 -39.5q-201 0 -320.5 147t-119.5 406zM250 537q0 -204 92.5 -321.5t251.5 -117.5q80 0 152 41t118 99v591q-45 57 -117.5 98.5t-152.5 41.5 q-159 0 -251.5 -116t-92.5 -316z" />
<glyph unicode="r" horiz-adv-x="780" d="M172 0v1071h133v-190q39 106 100.5 157.5t157.5 51.5q102 0 172 -64l-30 -119q-75 58 -154 58q-93 0 -151 -70t-95 -199v-696h-133z" />
<glyph unicode="s" horiz-adv-x="931" d="M106 66l31 120q148 -92 309 -92q113 0 182.5 55.5t69.5 139.5q0 71 -47.5 113.5t-140.5 70.5l-137 41q-132 39 -195 102.5t-63 176.5q0 130 97 213.5t265 83.5q82 0 177.5 -22.5t148.5 -51.5l-35 -117q-58 32 -135.5 53t-149.5 21q-111 0 -172 -49.5t-61 -128.5 q0 -71 43 -107t139 -65l139 -43q130 -39 195 -107.5t65 -173.5q0 -135 -105 -227t-275 -92q-100 0 -191.5 25.5t-153.5 60.5z" />
<glyph unicode="t" horiz-adv-x="847" d="M72 961v110h184l14 272h111v-272h373v-110h-373v-668q0 -101 41.5 -148t124.5 -47q51 0 112 23.5t103 58.5l39 -108q-135 -92 -283 -92q-128 0 -199 73t-71 226v682h-176z" />
<glyph unicode="u" horiz-adv-x="1177" d="M162 401v670h133v-647q0 -318 268 -318q117 0 198.5 71.5t112.5 182.5v711h134v-1071h-134v180q-50 -94 -141 -146t-211 -52q-179 0 -269.5 108.5t-90.5 310.5z" />
<glyph unicode="v" horiz-adv-x="1107" d="M66 1071h145l344 -946l344 946h143l-403 -1071h-170z" />
<glyph unicode="w" horiz-adv-x="1757" d="M74 1071h145l289 -936l293 936h162l282 -936l297 936h146l-357 -1071h-166l-284 918l-295 -918h-166z" />
<glyph unicode="x" horiz-adv-x="1024" d="M72 0v12l344 520l-344 527v12h145l293 -459l295 459h145v-12l-348 -527l348 -520v-12h-147l-293 455l-289 -455h-149z" />
<glyph unicode="y" horiz-adv-x="1079" d="M45 -344l25 104q79 -51 176 -51q82 0 128.5 51.5t84.5 163.5l28 86l-436 1061h148l350 -924l317 924h135l-423 -1175q-56 -154 -128 -228t-198 -74q-117 0 -207 62z" />
<glyph unicode="z" horiz-adv-x="931" d="M102 0v102l562 859h-562v110h727v-102l-561 -858h561v-111h-727z" />
<glyph unicode="{" horiz-adv-x="555" d="M94 485v90q90 0 131 38t41 114q0 91 -53 261.5t-53 242.5q0 97 55.5 160t171.5 63h68v-102h-47q-68 0 -105 -41t-37 -105q0 -53 27 -141t54.5 -184t27.5 -168q0 -78 -31.5 -122t-101.5 -61q70 -17 101.5 -62t31.5 -128q0 -70 -27.5 -165.5t-54.5 -183.5t-27 -141 q0 -64 37 -105.5t105 -41.5h47v-100h-68q-116 0 -171.5 63.5t-55.5 163.5q0 72 53 243.5t53 262.5q0 76 -40.5 112.5t-131.5 36.5z" />
<glyph unicode="|" horiz-adv-x="454" d="M172 -385v1839h111v-1839h-111z" />
<glyph unicode="}" horiz-adv-x="557" d="M100 -297h52q65 0 101 41.5t36 105.5q0 53 -26.5 141t-53.5 183.5t-27 165.5q0 84 31 128.5t102 61.5q-71 17 -102 60.5t-31 122.5q0 72 26.5 168t53.5 184t27 141q0 64 -36 105t-101 41h-52v102h70q115 0 171 -63t56 -160q0 -72 -53 -242.5t-53 -261.5 q0 -75 40.5 -113.5t129.5 -38.5v-90q-89 0 -129.5 -36.5t-40.5 -112.5q0 -91 53 -262.5t53 -243.5q0 -100 -56 -163.5t-171 -63.5h-70v100z" />
<glyph unicode="~" horiz-adv-x="929" d="M139 575q11 76 58 130.5t114 54.5q43 0 88 -28t76.5 -61t70 -61t68.5 -28q48 0 76.5 36t42.5 103l60 -57q-15 -83 -63 -135t-114 -52q-41 0 -84 28t-73 61t-69.5 61t-74.5 28q-42 0 -74 -35.5t-42 -103.5z" />
<glyph unicode="&#xa1;" horiz-adv-x="468" d="M131 987q0 55 27.5 84t77.5 29q47 0 72.5 -29t25.5 -84q0 -54 -25.5 -83.5t-72.5 -29.5q-50 0 -77.5 29.5t-27.5 83.5zM168 -315l16 977h101l16 -977h-133z" />
<glyph unicode="&#xa2;" horiz-adv-x="1085" d="M113 537q0 258 132 410.5t349 152.5q30 0 84 -8l51 215l82 -23l-51 -215q95 -36 180 -127l-66 -100q-65 75 -143 106l-201 -846q30 -6 66 -6q89 0 155.5 34t122.5 99l66 -100q-145 -158 -346 -158q-22 0 -92 9l-60 -256l-82 24l60 252q-143 55 -225 196t-82 341zM246 537 q0 -152 54 -258t151 -152l198 844q-32 4 -55 4q-158 0 -253 -118t-95 -320z" />
<glyph unicode="&#xa3;" horiz-adv-x="1124" d="M94 168q0 85 49 139.5t127 54.5q25 0 52 -8t40 -18q1 28 -0.5 57t-7.5 69t-9.5 61t-14 75.5t-13.5 69.5h-172v90h156q-25 146 -25 256q0 176 88.5 287.5t258.5 111.5q61 0 118 -17.5t99.5 -46.5t71.5 -55t51 -53l-48 -113q-20 25 -33.5 40.5t-41 40.5t-54 40t-64.5 27 t-79 12q-114 0 -173.5 -82.5t-59.5 -216.5q0 -91 18 -231h399v-90h-385q2 -14 7.5 -48t8 -50t6.5 -46.5t6 -48.5t4.5 -45t3.5 -46.5t0.5 -42.5t-1.5 -44q23 -16 78 -71t104.5 -92.5t88.5 -37.5q57 0 91.5 42.5t47.5 114t12 179.5h117q13 -452 -240 -452q-44 0 -94 27.5 t-86 60.5t-79.5 74.5t-65.5 56.5q-25 -102 -71 -160.5t-128 -58.5q-75 0 -116.5 52t-41.5 136zM176 164q0 -44 17.5 -72.5t56.5 -28.5q91 0 106 185q-32 28 -77 28t-74 -30.5t-29 -81.5z" />
<glyph unicode="&#xa4;" horiz-adv-x="1083" d="M137 295l115 113q-72 88 -72 208q0 123 72 211l-115 115l82 80l115 -117q87 64 203 64q122 0 208 -70l119 123l82 -80l-123 -121q68 -84 68 -205q0 -113 -66 -202l121 -119l-82 -80l-119 121q-87 -68 -208 -68q-120 0 -203 64l-115 -117zM283 616q0 -108 71 -179.5 t183 -71.5t181.5 71t69.5 180q0 111 -69.5 183.5t-181.5 72.5q-111 0 -182.5 -73t-71.5 -183z" />
<glyph unicode="&#xa5;" horiz-adv-x="1060" d="M80 1380v13h137l311 -691l314 691h139v-13l-356 -725h270v-92h-301v-151h301v-93h-301v-319h-133v319h-297v93h297v151h-297v92h264z" />
<glyph unicode="&#xa6;" horiz-adv-x="462" d="M176 326h111v-711h-111v711zM176 768v686h111v-686h-111z" />
<glyph unicode="&#xa7;" horiz-adv-x="1130" d="M127 596q0 92 48 168t144 119q-188 53 -188 227q0 128 116 215.5t320 87.5q121 0 230.5 -26.5t183.5 -63.5l-37 -111q-76 36 -179.5 63.5t-207.5 27.5q-139 0 -218 -56t-79 -135q0 -108 156 -137l270 -51q153 -31 236.5 -112.5t83.5 -205.5q0 -95 -51.5 -167.5 t-145.5 -112.5q96 -33 146.5 -86t50.5 -138q0 -140 -125.5 -220.5t-323.5 -80.5q-122 0 -233 28.5t-179 64.5l31 112q189 -92 387 -92q138 0 223.5 48.5t85.5 135.5q0 29 -11.5 52t-29 38.5t-50 29t-63 22.5t-79.5 20l-250 53q-139 32 -200.5 98.5t-61.5 184.5zM246 608 q0 -81 42.5 -126t143.5 -68l170 -37q127 3 203 61.5t76 157.5q0 89 -61.5 146t-178.5 79l-127 23q-69 -4 -122.5 -27t-84 -57.5t-46 -73t-15.5 -78.5z" />
<glyph unicode="&#xa8;" horiz-adv-x="1044" d="M221 1374q0 86 84 86q37 0 59.5 -21t22.5 -65q0 -42 -22.5 -63t-59.5 -21q-39 0 -61.5 21t-22.5 63zM657 1374q0 86 86 86q36 0 58 -21t22 -65q0 -42 -22 -63t-58 -21q-86 0 -86 84z" />
<glyph unicode="&#xa9;" horiz-adv-x="1658" d="M113 694q0 203 93 368t256.5 258t364.5 93q152 0 285.5 -55t228.5 -150t150 -228.5t55 -285.5q0 -201 -93 -364.5t-258 -256.5t-368 -93q-201 0 -364.5 93t-256.5 256.5t-93 364.5zM199 694q0 -177 82 -322t225.5 -227t320.5 -82q134 0 251.5 48.5t201 132t132 200.5 t48.5 250q0 134 -48.5 251.5t-132 202t-201 133t-251.5 48.5q-176 0 -320 -82.5t-226 -228.5t-82 -324zM475 696q0 155 102.5 256t258.5 101q166 0 274 -111l-49 -78q-82 88 -217 88q-115 0 -187.5 -72.5t-72.5 -183.5q0 -113 72.5 -184.5t187.5 -71.5q134 0 217 86l49 -77 q-108 -111 -274 -111q-156 0 -258.5 101t-102.5 257z" />
<glyph unicode="&#xaa;" horiz-adv-x="876" d="M150 920q0 116 79.5 175.5t214.5 59.5q44 0 86 -10v33q0 77 -32 110t-99 33q-103 0 -176 -47l-18 88q37 20 101.5 33.5t111.5 13.5q111 0 159 -55.5t48 -167.5v-322q0 -38 10 -52.5t39 -14.5q22 0 57 28l10 -82q-54 -32 -106 -32q-81 0 -100 86q-78 -86 -183 -86 q-92 0 -147 59t-55 150zM178 444v84h531v-84h-531zM236 930q0 -61 37 -97t100 -36q88 0 157 69v203q-40 14 -94 14q-91 0 -145.5 -37t-54.5 -116z" />
<glyph unicode="&#xab;" horiz-adv-x="931" d="M109 604v31l278 405h10l49 -41l-221 -378l221 -381l-49 -41h-10zM473 604v31l277 405h12l47 -41l-219 -378l221 -381l-49 -41h-12z" />
<glyph unicode="&#xac;" horiz-adv-x="1118" d="M162 686v111h799v-521h-109v410h-690z" />
<glyph unicode="&#xad;" horiz-adv-x="952" d="M150 563v113h653v-113h-653z" />
<glyph unicode="&#xae;" horiz-adv-x="1658" d="M113 694q0 203 93 368t256.5 258t364.5 93q152 0 285.5 -55t228.5 -150t150 -228.5t55 -285.5q0 -201 -93 -364.5t-258 -256.5t-368 -93q-201 0 -364.5 93t-256.5 256.5t-93 364.5zM199 694q0 -177 82 -322t225.5 -227t320.5 -82q134 0 251.5 48.5t201 132t132 200.5 t48.5 250q0 134 -48.5 251.5t-132 202t-201 133t-251.5 48.5q-176 0 -320 -82.5t-226 -228.5t-82 -324zM561 346v696h311q105 0 174.5 -57.5t69.5 -167.5q0 -54 -19.5 -96t-52 -67t-68 -39t-73.5 -17l244 -233v-19h-121l-254 252h-104v-252h-107zM668 678h202q62 0 103 37 t41 98q0 68 -41.5 104.5t-102.5 36.5h-202v-276z" />
<glyph unicode="&#xaf;" horiz-adv-x="1044" d="M311 1305v100h420v-100h-420z" />
<glyph unicode="&#xb0;" horiz-adv-x="839" d="M115 1059q0 164 85 258t220 94q136 0 220.5 -94t84.5 -258t-84.5 -257t-220.5 -93q-135 0 -220 93t-85 257zM213 1059q0 -122 56 -187t151 -65q96 0 152.5 65t56.5 187q0 123 -56.5 189.5t-152.5 66.5q-95 0 -151 -66.5t-56 -189.5z" />
<glyph unicode="&#xb1;" horiz-adv-x="1140" d="M170 168v113h801v-113h-801zM170 788v113h346v410h109v-410h346v-113h-346v-323h-109v323h-346z" />
<glyph unicode="&#xb2;" horiz-adv-x="587" d="M78 1391q2 103 58 165t155 62t151 -58.5t52 -150.5q0 -66 -27.5 -120t-91.5 -109l-168 -150h305v-76h-422v68l227 205q95 79 95 174q0 61 -32 99t-91 38q-65 0 -99 -44t-36 -116z" />
<glyph unicode="&#xb3;" horiz-adv-x="581" d="M78 989l20 72q79 -41 168 -41q66 0 108 34t42 91q0 52 -33.5 81t-97.5 29h-142v72h142q53 0 82.5 32.5t29.5 76.5q0 52 -35 79t-98 27q-47 0 -82.5 -9t-83.5 -34l-18 74q98 45 190 45q98 0 154.5 -46t56.5 -130q0 -52 -25.5 -90.5t-72.5 -55.5q55 -12 86 -54.5t31 -108.5 q0 -86 -62 -137.5t-168 -51.5q-83 0 -192 45z" />
<glyph unicode="&#xb4;" horiz-adv-x="1044" d="M383 1237l143 281h136l-160 -281h-119z" />
<glyph unicode="&#xb5;" horiz-adv-x="1114" d="M172 -385v1456h133v-610q0 -177 61.5 -267t194.5 -90q105 0 177 61.5t108 164.5v741h133v-1071h-133v147q-102 -167 -326 -167q-134 0 -215 63v-428h-133z" />
<glyph unicode="&#xb6;" horiz-adv-x="935" d="M68 838q0 109 59 170t154 63h206v-1456h-108v989h-98q-95 0 -154 62t-59 172zM651 -385v1456h107v-1456h-107z" />
<glyph unicode="&#xb7;" horiz-adv-x="491" d="M145 610q0 54 26 83.5t73 29.5q51 0 77.5 -29.5t26.5 -83.5q0 -112 -104 -112q-48 0 -73.5 28.5t-25.5 83.5z" />
<glyph unicode="&#xb8;" horiz-adv-x="1044" d="M369 -381l16 59q61 -22 109 -22q51 0 79.5 21t28.5 63q0 34 -24.5 53t-71.5 19q-61 0 -107 -17l-4 8l45 201h64l-31 -141q28 8 55 8q68 0 108 -35.5t40 -93.5q0 -69 -50.5 -108.5t-127.5 -39.5q-62 0 -129 25z" />
<glyph unicode="&#xb9;" horiz-adv-x="454" d="M37 1468l242 138h61v-652h-82v557l-188 -106z" />
<glyph unicode="&#xba;" horiz-adv-x="909" d="M150 1059q0 166 84 259t221 93t220 -92.5t83 -259.5q0 -165 -83 -257.5t-220 -92.5t-221 92.5t-84 257.5zM190 444v84h531v-84h-531zM242 1059q0 -126 57.5 -193t155.5 -67t155.5 67t57.5 193t-57.5 194t-155.5 68t-155.5 -68t-57.5 -194z" />
<glyph unicode="&#xbb;" horiz-adv-x="929" d="M121 240l221 381l-221 378l49 41h10l279 -405v-31l-279 -405h-10zM483 999l49 41h13l276 -405v-31l-276 -405h-13l-47 41l222 381z" />
<glyph unicode="&#xbc;" horiz-adv-x="1421" d="M61 1264l242 137h62v-651h-82v557l-189 -107zM287 0v12l641 1381h86v-13l-641 -1380h-86zM817 137v60l303 454h107v-448h112v-66h-112v-137h-82v137h-328zM905 203h240v364z" />
<glyph unicode="&#xbd;" horiz-adv-x="1370" d="M61 1264l242 137h62v-651h-82v557l-189 -107zM287 0v12l641 1381h86v-13l-641 -1380h-86zM848 436q2 103 58 165.5t155 62.5t151 -58.5t52 -152.5q0 -65 -28 -119t-91 -109l-168 -149h303v-76h-422v68l229 202q48 44 70.5 85t22.5 91q0 60 -31.5 99t-91.5 39 q-65 0 -98 -43.5t-35 -116.5z" />
<glyph unicode="&#xbe;" horiz-adv-x="1548" d="M100 784l21 72q79 -41 168 -41q66 0 107.5 34t41.5 91q0 52 -34 81.5t-97 29.5h-141v71h141q53 0 83 32.5t30 76.5q0 52 -35 79t-98 27q-47 0 -82.5 -9t-83.5 -34l-19 74q98 45 191 45q98 0 154.5 -46t56.5 -130q0 -51 -25.5 -89.5t-72.5 -55.5q55 -12 85.5 -54.5 t30.5 -109.5q0 -86 -62 -137.5t-167 -51.5q-84 0 -193 45zM418 0v12l641 1381h86v-13l-641 -1380h-86zM950 137v60l303 454h107v-448h113v-66h-113v-137h-82v137h-328zM1038 203h240v364z" />
<glyph unicode="&#xbf;" horiz-adv-x="815" d="M84 -6q0 90 31 163.5t96 147.5l139 164q36 43 50 71t14 64q0 35 -6 58h112q12 -50 12 -84q0 -49 -20.5 -86.5t-69.5 -96.5l-133 -162q-51 -60 -71.5 -112t-20.5 -125q0 -92 60 -154.5t161 -62.5q173 0 258 166l49 -99q-115 -182 -335 -182q-148 0 -237 93t-89 237z M358 987q0 55 26.5 84t76.5 29q98 0 98 -113t-98 -113q-49 0 -76 29.5t-27 83.5z" />
<glyph unicode="&#xc0;" horiz-adv-x="1245" d="M49 0l504 1393h152l479 -1393h-133l-115 340h-633l-121 -340h-133zM342 446h559l-272 809zM416 1839h135l143 -280h-119z" />
<glyph unicode="&#xc1;" horiz-adv-x="1245" d="M49 0l504 1393h152l479 -1393h-133l-115 340h-633l-121 -340h-133zM342 446h559l-272 809zM545 1559l143 280h135l-159 -280h-119z" />
<glyph unicode="&#xc2;" horiz-adv-x="1245" d="M49 0l504 1393h152l479 -1393h-133l-115 340h-633l-121 -340h-133zM342 446h559l-272 809zM373 1559l188 280h135l187 -280h-113l-143 202l-142 -202h-112z" />
<glyph unicode="&#xc3;" horiz-adv-x="1245" d="M49 0l504 1393h152l479 -1393h-133l-115 340h-633l-121 -340h-133zM332 1665q26 58 71.5 99.5t98.5 41.5q38 0 75 -21.5t62 -48t56 -48t59 -21.5q77 0 120 102l50 -59q-65 -141 -170 -141q-30 0 -59.5 14.5t-53 35t-46 40.5t-47 34.5t-46.5 14.5q-73 0 -123 -102z M342 446h559l-272 809z" />
<glyph unicode="&#xc4;" horiz-adv-x="1245" d="M49 0l504 1393h152l479 -1393h-133l-115 340h-633l-121 -340h-133zM328 1696q0 86 84 86q37 0 59.5 -21t22.5 -65q0 -42 -22.5 -63t-59.5 -21q-39 0 -61.5 21t-22.5 63zM342 446h559l-272 809zM764 1696q0 86 86 86q36 0 58 -21t22 -65q0 -42 -22 -63t-58 -21 q-86 0 -86 84z" />
<glyph unicode="&#xc5;" horiz-adv-x="1245" d="M49 0l490 1354q-50 25 -80.5 73t-30.5 107q0 83 59 142t142 59t141.5 -59t58.5 -142q0 -59 -30 -107t-82 -73l467 -1354h-133l-115 340h-633l-121 -340h-133zM342 446h559l-272 809zM498 1534q0 -54 38.5 -92.5t92.5 -38.5t92.5 38.5t38.5 92.5t-38.5 92.5t-92.5 38.5 t-92.5 -38.5t-38.5 -92.5z" />
<glyph unicode="&#xc6;" horiz-adv-x="1843" d="M16 0l746 1393h973v-121h-777v-490h648v-112h-648v-549h777v-121h-904v340h-491l-180 -340h-144zM397 446h434v805z" />
<glyph unicode="&#xc7;" horiz-adv-x="1257" d="M115 696q0 333 162 525t428 192q141 0 257.5 -61.5t196.5 -163.5l-76 -92q-157 190 -368 190q-217 0 -340 -155t-123 -435t123 -435t340 -155q210 0 368 191l76 -92q-80 -102 -196.5 -163.5t-257.5 -61.5h-23l-25 -117q28 8 56 8q68 0 107.5 -35.5t39.5 -93.5 q0 -69 -50.5 -108.5t-127.5 -39.5q-62 0 -129 25l16 59q61 -22 109 -22q51 0 79.5 21t28.5 63q0 34 -24.5 53t-71.5 19q-60 0 -106 -17l-4 8l41 183q-232 30 -369 217.5t-137 492.5z" />
<glyph unicode="&#xc8;" horiz-adv-x="1204" d="M190 0v1393h906v-121h-774v-486h647v-120h-647v-545h774v-121h-906zM434 1839h135l144 -280h-119z" />
<glyph unicode="&#xc9;" horiz-adv-x="1204" d="M190 0v1393h906v-121h-774v-486h647v-120h-647v-545h774v-121h-906zM567 1559l144 280h135l-160 -280h-119z" />
<glyph unicode="&#xca;" horiz-adv-x="1204" d="M190 0v1393h906v-121h-774v-486h647v-120h-647v-545h774v-121h-906zM389 1559l189 280h135l186 -280h-113l-143 202l-141 -202h-113z" />
<glyph unicode="&#xcb;" horiz-adv-x="1204" d="M190 0v1393h906v-121h-774v-486h647v-120h-647v-545h774v-121h-906zM344 1696q0 86 84 86q37 0 59.5 -21t22.5 -65q0 -42 -22.5 -63t-59.5 -21q-39 0 -61.5 21t-22.5 63zM780 1696q0 86 86 86q36 0 58 -21t22 -65q0 -42 -22 -63t-58 -21q-86 0 -86 84z" />
<glyph unicode="&#xcc;" horiz-adv-x="516" d="M53 1839h135l144 -280h-119zM190 0v1393h136v-1393h-136z" />
<glyph unicode="&#xcd;" horiz-adv-x="516" d="M190 0v1393h136v-1393h-136zM197 1559l143 280h135l-160 -280h-118z" />
<glyph unicode="&#xce;" horiz-adv-x="516" d="M2 1559l188 280h136l186 -280h-113l-143 202l-141 -202h-113zM190 0v1393h136v-1393h-136z" />
<glyph unicode="&#xcf;" horiz-adv-x="516" d="M-47 1696q0 86 84 86q37 0 59.5 -21t22.5 -65q0 -42 -22.5 -63t-59.5 -21q-39 0 -61.5 21t-22.5 63zM190 0v1393h136v-1393h-136zM389 1696q0 86 86 86q36 0 58 -21t22 -65q0 -42 -22 -63t-58 -21q-86 0 -86 84z" />
<glyph unicode="&#xd0;" horiz-adv-x="1388" d="M90 659v80h543v-80h-543zM201 0v1393h461q132 -1 243.5 -47t193.5 -132.5t128.5 -220t46.5 -299.5q0 -165 -46.5 -297.5t-128.5 -218.5t-193.5 -132t-243.5 -46h-461zM334 121h313q223 0 357.5 150t134.5 423q0 276 -134.5 427t-357.5 151h-313v-1151z" />
<glyph unicode="&#xd1;" horiz-adv-x="1456" d="M190 0v1393h119l821 -1172v1172h136v-1393h-121l-821 1167v-1167h-134zM444 1665q26 58 71.5 99.5t98.5 41.5q38 0 75 -21.5t62 -48t56 -48t59 -21.5q78 0 121 102l49 -59q-65 -141 -170 -141q-30 0 -59.5 14.5t-53 35t-46 40.5t-47 34.5t-46.5 14.5q-72 0 -122 -102z " />
<glyph unicode="&#xd2;" d="M113 694q0 321 170 520t438 199q177 0 316 -89.5t216.5 -253.5t77.5 -376q0 -210 -77.5 -373t-216.5 -252t-316 -89q-268 0 -438 198t-170 516zM246 694q0 -272 132 -428.5t343 -156.5q212 0 344.5 157t132.5 428q0 274 -132.5 432t-344.5 158q-211 0 -343 -158 t-132 -432zM508 1839h135l143 -280h-118z" />
<glyph unicode="&#xd3;" d="M113 694q0 321 170 520t438 199q177 0 316 -89.5t216.5 -253.5t77.5 -376q0 -210 -77.5 -373t-216.5 -252t-316 -89q-268 0 -438 198t-170 516zM246 694q0 -272 132 -428.5t343 -156.5q212 0 344.5 157t132.5 428q0 274 -132.5 432t-344.5 158q-211 0 -343 -158 t-132 -432zM657 1559l144 280h135l-160 -280h-119z" />
<glyph unicode="&#xd4;" d="M113 694q0 321 170 520t438 199q177 0 316 -89.5t216.5 -253.5t77.5 -376q0 -210 -77.5 -373t-216.5 -252t-316 -89q-268 0 -438 198t-170 516zM246 694q0 -272 132 -428.5t343 -156.5q212 0 344.5 157t132.5 428q0 274 -132.5 432t-344.5 158q-211 0 -343 -158 t-132 -432zM465 1559l188 280h135l187 -280h-113l-143 202l-141 -202h-113z" />
<glyph unicode="&#xd5;" d="M113 694q0 321 170 520t438 199q177 0 316 -89.5t216.5 -253.5t77.5 -376q0 -210 -77.5 -373t-216.5 -252t-316 -89q-268 0 -438 198t-170 516zM246 694q0 -272 132 -428.5t343 -156.5q212 0 344.5 157t132.5 428q0 274 -132.5 432t-344.5 158q-211 0 -343 -158 t-132 -432zM426 1665q26 58 71.5 99.5t98.5 41.5q38 0 75 -21.5t62 -48t56 -48t59 -21.5q78 0 121 102l49 -59q-65 -141 -170 -141q-30 0 -59.5 14.5t-53 35t-46 40.5t-47 34.5t-46.5 14.5q-73 0 -123 -102z" />
<glyph unicode="&#xd6;" d="M113 694q0 321 170 520t438 199q177 0 316 -89.5t216.5 -253.5t77.5 -376q0 -210 -77.5 -373t-216.5 -252t-316 -89q-268 0 -438 198t-170 516zM246 694q0 -272 132 -428.5t343 -156.5q212 0 344.5 157t132.5 428q0 274 -132.5 432t-344.5 158q-211 0 -343 -158 t-132 -432zM422 1696q0 86 84 86q37 0 59.5 -21t22.5 -65q0 -42 -22.5 -63t-59.5 -21q-39 0 -61.5 21t-22.5 63zM858 1696q0 86 86 86q36 0 58 -21t22 -65q0 -42 -22 -63t-58 -21q-86 0 -86 84z" />
<glyph unicode="&#xd7;" horiz-adv-x="927" d="M143 330l246 288l-246 291l78 78l244 -291l244 291l77 -78l-245 -291l245 -288l-77 -80l-244 291l-244 -291z" />
<glyph unicode="&#xd8;" d="M113 694q0 321 170 520t438 199q205 0 360 -123l72 103h100v-13l-104 -151q87 -96 134.5 -233.5t47.5 -301.5q0 -210 -77.5 -373t-216.5 -252t-316 -89q-201 0 -352 114l-64 -94h-104v12l100 146q-90 95 -139 232t-49 304zM246 694q0 -268 131 -428l631 918 q-118 100 -287 100q-211 0 -343 -158t-132 -432zM442 201q122 -92 279 -92q212 0 344.5 157t132.5 428q0 263 -127 422z" />
<glyph unicode="&#xd9;" horiz-adv-x="1374" d="M176 555v838h135v-832q0 -216 92.5 -337.5t282.5 -121.5q127 0 213.5 61.5t125 163t38.5 236.5v830h135v-838q0 -120 -31.5 -223.5t-92.5 -184t-161 -126.5t-227 -46q-170 0 -286 74.5t-170 202.5t-54 303zM475 1839h135l144 -280h-119z" />
<glyph unicode="&#xda;" horiz-adv-x="1374" d="M176 555v838h135v-832q0 -216 92.5 -337.5t282.5 -121.5q127 0 213.5 61.5t125 163t38.5 236.5v830h135v-838q0 -120 -31.5 -223.5t-92.5 -184t-161 -126.5t-227 -46q-170 0 -286 74.5t-170 202.5t-54 303zM621 1559l143 280h135l-160 -280h-118z" />
<glyph unicode="&#xdb;" horiz-adv-x="1374" d="M176 555v838h135v-832q0 -216 92.5 -337.5t282.5 -121.5q127 0 213.5 61.5t125 163t38.5 236.5v830h135v-838q0 -120 -31.5 -223.5t-92.5 -184t-161 -126.5t-227 -46q-170 0 -286 74.5t-170 202.5t-54 303zM430 1559l188 280h136l186 -280h-113l-143 202l-141 -202h-113z " />
<glyph unicode="&#xdc;" horiz-adv-x="1374" d="M176 555v838h135v-832q0 -216 92.5 -337.5t282.5 -121.5q127 0 213.5 61.5t125 163t38.5 236.5v830h135v-838q0 -120 -31.5 -223.5t-92.5 -184t-161 -126.5t-227 -46q-170 0 -286 74.5t-170 202.5t-54 303zM387 1696q0 86 84 86q37 0 59.5 -21t22.5 -65q0 -42 -22.5 -63 t-59.5 -21q-39 0 -61.5 21t-22.5 63zM823 1696q0 86 86 86q36 0 58 -21t22 -65q0 -42 -22 -63t-58 -21q-86 0 -86 84z" />
<glyph unicode="&#xdd;" horiz-adv-x="1214" d="M49 1380v13h150l409 -680l410 680h147v-13l-491 -788v-592h-133v590zM543 1559l143 280h135l-159 -280h-119z" />
<glyph unicode="&#xde;" horiz-adv-x="1202" d="M190 0v1393h134v-226h374q87 0 160.5 -25t133.5 -77t94 -142.5t34 -211.5q0 -109 -34.5 -196.5t-93.5 -141.5t-134 -82.5t-160 -28.5h-374v-262h-134zM324 383h350q136 0 223.5 84t87.5 246q0 90 -24 156.5t-68 104t-98.5 55.5t-120.5 18h-350v-664z" />
<glyph unicode="&#xdf;" horiz-adv-x="1177" d="M172 0v940q0 257 118.5 396t307.5 139q111 0 199.5 -54t135 -141t46.5 -188q0 -55 -17 -108t-41 -91t-48 -69.5t-41 -56t-17 -38.5q0 -12 27 -37t65 -59.5t76 -78t65 -107t27 -132.5q0 -153 -94.5 -244t-245.5 -91q-161 0 -264 65l23 113q90 -62 200 -62q102 0 171 64.5 t69 171.5q0 58 -26.5 110.5t-64.5 90t-76 70t-64.5 62.5t-26.5 54q0 23 17.5 52t42 60t49 66t42 82t17.5 96q0 124 -74 201.5t-182 77.5q-133 0 -209 -112t-76 -302v-940h-131z" />
<glyph unicode="&#xe0;" horiz-adv-x="1054" d="M92 305q0 96 37.5 169.5t104 118.5t153.5 67t191 22q89 0 184 -25v52q0 262 -258 262q-162 0 -293 -70l-27 113q69 35 163 55.5t175 20.5q178 0 274.5 -99t96.5 -286v-705h-131v115q-135 -135 -326 -135q-158 0 -251 88t-93 237zM227 317q0 -106 67.5 -166.5t178.5 -60.5 q169 0 289 133v334q-81 25 -176 25q-159 0 -259 -66t-100 -199zM344 1518h135l144 -281h-119z" />
<glyph unicode="&#xe1;" horiz-adv-x="1054" d="M92 305q0 96 37.5 169.5t104 118.5t153.5 67t191 22q89 0 184 -25v52q0 262 -258 262q-162 0 -293 -70l-27 113q69 35 163 55.5t175 20.5q178 0 274.5 -99t96.5 -286v-705h-131v115q-135 -135 -326 -135q-158 0 -251 88t-93 237zM227 317q0 -106 67.5 -166.5t178.5 -60.5 q169 0 289 133v334q-81 25 -176 25q-159 0 -259 -66t-100 -199zM469 1237l143 281h136l-160 -281h-119z" />
<glyph unicode="&#xe2;" horiz-adv-x="1054" d="M92 305q0 96 37.5 169.5t104 118.5t153.5 67t191 22q89 0 184 -25v52q0 262 -258 262q-162 0 -293 -70l-27 113q69 35 163 55.5t175 20.5q178 0 274.5 -99t96.5 -286v-705h-131v115q-135 -135 -326 -135q-158 0 -251 88t-93 237zM227 317q0 -106 67.5 -166.5t178.5 -60.5 q169 0 289 133v334q-81 25 -176 25q-159 0 -259 -66t-100 -199zM297 1237l188 281h136l186 -281h-113l-143 203l-141 -203h-113z" />
<glyph unicode="&#xe3;" horiz-adv-x="1054" d="M92 305q0 96 37.5 169.5t104 118.5t153.5 67t191 22q89 0 184 -25v52q0 262 -258 262q-162 0 -293 -70l-27 113q69 35 163 55.5t175 20.5q178 0 274.5 -99t96.5 -286v-705h-131v115q-135 -135 -326 -135q-158 0 -251 88t-93 237zM227 317q0 -106 67.5 -166.5t178.5 -60.5 q169 0 289 133v334q-81 25 -176 25q-159 0 -259 -66t-100 -199zM252 1343q26 58 71.5 100t98.5 42q38 0 75 -21.5t62 -48t56 -48t59 -21.5q78 0 121 102l49 -59q-29 -63 -72 -102.5t-98 -39.5q-30 0 -59.5 14.5t-53 35t-46 40.5t-47 34.5t-46.5 14.5q-73 0 -123 -102z" />
<glyph unicode="&#xe4;" horiz-adv-x="1054" d="M92 305q0 96 37.5 169.5t104 118.5t153.5 67t191 22q89 0 184 -25v52q0 262 -258 262q-162 0 -293 -70l-27 113q69 35 163 55.5t175 20.5q178 0 274.5 -99t96.5 -286v-705h-131v115q-135 -135 -326 -135q-158 0 -251 88t-93 237zM227 317q0 -106 67.5 -166.5t178.5 -60.5 q169 0 289 133v334q-81 25 -176 25q-159 0 -259 -66t-100 -199zM244 1374q0 86 84 86q37 0 59.5 -21t22.5 -65q0 -42 -22.5 -63t-59.5 -21q-39 0 -61.5 21t-22.5 63zM680 1374q0 86 86 86q36 0 58 -21t22 -65q0 -42 -22 -63t-58 -21q-86 0 -86 84z" />
<glyph unicode="&#xe5;" horiz-adv-x="1054" d="M92 305q0 96 37.5 169.5t104 118.5t153.5 67t191 22q89 0 184 -25v52q0 262 -258 262q-162 0 -293 -70l-27 113q69 35 163 55.5t175 20.5q178 0 274.5 -99t96.5 -286v-705h-131v115q-135 -135 -326 -135q-158 0 -251 88t-93 237zM227 317q0 -106 67.5 -166.5t178.5 -60.5 q169 0 289 133v334q-81 25 -176 25q-159 0 -259 -66t-100 -199zM334 1372q0 83 59 142t142 59t141.5 -59t58.5 -142t-58.5 -142t-141.5 -59t-142 59t-59 142zM403 1372q0 -54 39 -92.5t93 -38.5t92.5 38.5t38.5 92.5t-38.5 92.5t-92.5 38.5t-93 -38.5t-39 -92.5z" />
<glyph unicode="&#xe6;" horiz-adv-x="1695" d="M92 309q0 178 129.5 274t349.5 99q85 0 191 -25q3 156 -55 235t-207 79q-148 0 -291 -68l-25 113q72 34 166 54t178 20q147 0 223 -65.5t101 -182.5q20 47 48 88.5t70.5 82t103 64t132.5 23.5q100 0 174.5 -34.5t118 -95.5t64 -137.5t20.5 -168.5q0 -98 -20 -172h-678 q3 -195 81 -304.5t236 -109.5q167 0 307 133l54 -90q-160 -150 -369 -150q-136 0 -226.5 66t-129.5 166q-66 -93 -164.5 -158t-227.5 -65q-161 0 -257.5 86.5t-96.5 242.5zM227 315q0 -104 70 -164.5t176 -60.5q99 0 177 53t112 123v289q-100 27 -170 27q-165 -2 -265 -67 t-100 -200zM895 592h567q8 50 8 84q0 139 -65 229t-199 90q-76 0 -137 -36t-98 -94.5t-56.5 -129t-19.5 -143.5z" />
<glyph unicode="&#xe7;" horiz-adv-x="1040" d="M115 537q0 258 132 410.5t349 152.5q201 0 346 -158l-65 -100q-114 133 -281 133q-158 0 -253 -118t-95 -320q0 -203 95.5 -322t254.5 -119q165 0 279 133l65 -100q-145 -158 -346 -158q-21 0 -31 2l-22 -110q28 8 55 8q68 0 107.5 -35.5t39.5 -93.5q0 -69 -50.5 -108.5 t-127.5 -39.5q-62 0 -129 25l17 59q61 -22 108 -22q51 0 80 21t29 63q0 34 -25 53t-72 19q-60 0 -106 -17l-4 8l39 177q-179 31 -284 179t-105 378z" />
<glyph unicode="&#xe8;" horiz-adv-x="1101" d="M113 532q0 250 129.5 409t345.5 159q102 0 180.5 -35t126 -96t71 -139.5t23.5 -170.5q0 -90 -20 -172h-727q6 -187 96 -293t274 -106q165 0 310 127l55 -104q-156 -140 -381 -140q-124 0 -217.5 41.5t-151 117.5t-86 177t-28.5 225zM248 596h612q8 50 8 80 q0 134 -72.5 220.5t-207.5 86.5q-153 0 -243.5 -107t-96.5 -280zM406 1518h135l143 -281h-119z" />
<glyph unicode="&#xe9;" horiz-adv-x="1101" d="M113 532q0 250 129.5 409t345.5 159q102 0 180.5 -35t126 -96t71 -139.5t23.5 -170.5q0 -90 -20 -172h-727q6 -187 96 -293t274 -106q165 0 310 127l55 -104q-156 -140 -381 -140q-124 0 -217.5 41.5t-151 117.5t-86 177t-28.5 225zM248 596h612q8 50 8 80 q0 134 -72.5 220.5t-207.5 86.5q-153 0 -243.5 -107t-96.5 -280zM516 1237l143 281h136l-160 -281h-119z" />
<glyph unicode="&#xea;" horiz-adv-x="1101" d="M113 532q0 250 129.5 409t345.5 159q102 0 180.5 -35t126 -96t71 -139.5t23.5 -170.5q0 -90 -20 -172h-727q6 -187 96 -293t274 -106q165 0 310 127l55 -104q-156 -140 -381 -140q-124 0 -217.5 41.5t-151 117.5t-86 177t-28.5 225zM248 596h612q8 50 8 80 q0 134 -72.5 220.5t-207.5 86.5q-153 0 -243.5 -107t-96.5 -280zM342 1237l188 281h136l186 -281h-113l-143 203l-141 -203h-113z" />
<glyph unicode="&#xeb;" horiz-adv-x="1101" d="M113 532q0 250 129.5 409t345.5 159q102 0 180.5 -35t126 -96t71 -139.5t23.5 -170.5q0 -90 -20 -172h-727q6 -187 96 -293t274 -106q165 0 310 127l55 -104q-156 -140 -381 -140q-124 0 -217.5 41.5t-151 117.5t-86 177t-28.5 225zM248 596h612q8 50 8 80 q0 134 -72.5 220.5t-207.5 86.5q-153 0 -243.5 -107t-96.5 -280zM295 1374q0 86 84 86q37 0 59.5 -21t22.5 -65q0 -42 -22.5 -63t-59.5 -21q-39 0 -61.5 21t-22.5 63zM731 1374q0 86 86 86q36 0 58 -21t22 -65q0 -42 -22 -63t-58 -21q-86 0 -86 84z" />
<glyph unicode="&#xec;" horiz-adv-x="475" d="M39 1518h135l143 -281h-118zM172 0v1071h131v-1071h-131z" />
<glyph unicode="&#xed;" horiz-adv-x="475" d="M172 0v1071h131v-1071h-131zM174 1237l143 281h136l-160 -281h-119z" />
<glyph unicode="&#xee;" horiz-adv-x="475" d="M-18 1237l188 281h135l187 -281h-113l-143 203l-142 -203h-112zM172 0v1071h131v-1071h-131z" />
<glyph unicode="&#xef;" horiz-adv-x="475" d="M-63 1374q0 86 83 86q37 0 59.5 -21t22.5 -65q0 -42 -22.5 -63t-59.5 -21q-83 0 -83 84zM172 0v1071h131v-1071h-131zM373 1374q0 86 86 86q36 0 58 -21t22 -65q0 -42 -22 -63t-58 -21q-86 0 -86 84z" />
<glyph unicode="&#xf0;" horiz-adv-x="1120" d="M121 469q0 213 100.5 337t274.5 124q66 0 126.5 -24t106 -65t76 -78.5t55.5 -80.5v16q0 159 -49.5 292.5t-132.5 230.5l-115 -140l-43 43l117 140q-82 79 -182 120l53 91q114 -37 205 -117l106 127l45 -41l-106 -129q107 -109 171 -267.5t64 -349.5q0 -335 -123.5 -526.5 t-347.5 -191.5q-175 0 -288 136t-113 353zM252 467q0 -157 77 -260t197 -103q136 0 220 118.5t106 328.5q-16 32 -34.5 62.5t-50 69t-65.5 66t-80.5 47t-95.5 19.5q-124 0 -199 -90.5t-75 -257.5z" />
<glyph unicode="&#xf1;" horiz-adv-x="1179" d="M172 0v1071h131v-180q52 94 142.5 146.5t211.5 52.5q179 0 269 -108.5t90 -311.5v-670h-131v647q0 318 -271 318q-117 0 -197.5 -71.5t-113.5 -182.5v-711h-131zM315 1343q26 58 71.5 100t98.5 42q38 0 75 -21.5t62 -48t56 -48t59 -21.5q78 0 121 102l49 -59 q-29 -63 -72 -102.5t-98 -39.5q-30 0 -59.5 14.5t-53 35t-46 40.5t-47 34.5t-46.5 14.5q-73 0 -123 -102z" />
<glyph unicode="&#xf2;" horiz-adv-x="1191" d="M113 532q0 261 132 414.5t349 153.5q220 0 353.5 -153.5t133.5 -414.5q0 -258 -133.5 -409.5t-353.5 -151.5q-217 0 -349 152t-132 409zM242 532q0 -202 96.5 -319t255.5 -117q161 0 257.5 117t96.5 319q0 205 -96.5 324t-257.5 119q-159 0 -255.5 -119t-96.5 -324z M383 1518h135l144 -281h-119z" />
<glyph unicode="&#xf3;" horiz-adv-x="1191" d="M113 532q0 261 132 414.5t349 153.5q220 0 353.5 -153.5t133.5 -414.5q0 -258 -133.5 -409.5t-353.5 -151.5q-217 0 -349 152t-132 409zM242 532q0 -202 96.5 -319t255.5 -117q161 0 257.5 117t96.5 319q0 205 -96.5 324t-257.5 119q-159 0 -255.5 -119t-96.5 -324z M532 1237l144 281h135l-160 -281h-119z" />
<glyph unicode="&#xf4;" horiz-adv-x="1191" d="M113 532q0 261 132 414.5t349 153.5q220 0 353.5 -153.5t133.5 -414.5q0 -258 -133.5 -409.5t-353.5 -151.5q-217 0 -349 152t-132 409zM242 532q0 -202 96.5 -319t255.5 -117q161 0 257.5 117t96.5 319q0 205 -96.5 324t-257.5 119q-159 0 -255.5 -119t-96.5 -324z M342 1237l188 281h136l186 -281h-113l-143 203l-141 -203h-113z" />
<glyph unicode="&#xf5;" horiz-adv-x="1191" d="M113 532q0 261 132 414.5t349 153.5q220 0 353.5 -153.5t133.5 -414.5q0 -258 -133.5 -409.5t-353.5 -151.5q-217 0 -349 152t-132 409zM242 532q0 -202 96.5 -319t255.5 -117q161 0 257.5 117t96.5 319q0 205 -96.5 324t-257.5 119q-159 0 -255.5 -119t-96.5 -324z M299 1343q26 58 71.5 100t98.5 42q38 0 75 -21.5t62 -48t56 -48t59 -21.5q78 0 121 102l49 -59q-29 -63 -72 -102.5t-98 -39.5q-30 0 -59.5 14.5t-53 35t-46 40.5t-47 34.5t-46.5 14.5q-73 0 -123 -102z" />
<glyph unicode="&#xf6;" horiz-adv-x="1191" d="M113 532q0 261 132 414.5t349 153.5q220 0 353.5 -153.5t133.5 -414.5q0 -258 -133.5 -409.5t-353.5 -151.5q-217 0 -349 152t-132 409zM242 532q0 -202 96.5 -319t255.5 -117q161 0 257.5 117t96.5 319q0 205 -96.5 324t-257.5 119q-159 0 -255.5 -119t-96.5 -324z M295 1374q0 86 84 86q37 0 59.5 -21t22.5 -65q0 -42 -22.5 -63t-59.5 -21q-39 0 -61.5 21t-22.5 63zM731 1374q0 86 86 86q36 0 58 -21t22 -65q0 -42 -22 -63t-58 -21q-86 0 -86 84z" />
<glyph unicode="&#xf7;" horiz-adv-x="1077" d="M139 563v111h799v-111h-799zM432 260q0 53 24 81t70 28q45 0 70 -28.5t25 -80.5q0 -53 -25 -80.5t-70 -27.5q-94 0 -94 108zM432 977q0 53 24 80.5t70 27.5q45 0 70 -28t25 -80t-25 -80.5t-70 -28.5q-46 0 -70 28t-24 81z" />
<glyph unicode="&#xf8;" horiz-adv-x="1191" d="M113 532q0 261 132 414.5t349 153.5q177 0 301 -105l51 74h78v-12l-78 -111q135 -154 135 -414q0 -258 -133.5 -409.5t-353.5 -151.5q-150 0 -268 78l-35 -49h-78v12l57 82q-157 154 -157 438zM242 532q0 -209 104 -329l475 686q-92 86 -227 86q-159 0 -255.5 -119 t-96.5 -324zM399 156q82 -60 195 -60q161 0 257.5 117t96.5 319q0 178 -80 299z" />
<glyph unicode="&#xf9;" horiz-adv-x="1177" d="M162 401v670h133v-647q0 -318 268 -318q117 0 198.5 71.5t112.5 182.5v711h134v-1071h-134v180q-50 -94 -141 -146t-211 -52q-179 0 -269.5 108.5t-90.5 310.5zM373 1518h135l143 -281h-119z" />
<glyph unicode="&#xfa;" horiz-adv-x="1177" d="M162 401v670h133v-647q0 -318 268 -318q117 0 198.5 71.5t112.5 182.5v711h134v-1071h-134v180q-50 -94 -141 -146t-211 -52q-179 0 -269.5 108.5t-90.5 310.5zM522 1237l144 281h135l-160 -281h-119z" />
<glyph unicode="&#xfb;" horiz-adv-x="1177" d="M162 401v670h133v-647q0 -318 268 -318q117 0 198.5 71.5t112.5 182.5v711h134v-1071h-134v180q-50 -94 -141 -146t-211 -52q-179 0 -269.5 108.5t-90.5 310.5zM332 1237l188 281h135l187 -281h-113l-143 203l-142 -203h-112z" />
<glyph unicode="&#xfc;" horiz-adv-x="1177" d="M162 401v670h133v-647q0 -318 268 -318q117 0 198.5 71.5t112.5 182.5v711h134v-1071h-134v180q-50 -94 -141 -146t-211 -52q-179 0 -269.5 108.5t-90.5 310.5zM285 1374q0 86 84 86q37 0 59.5 -21t22.5 -65q0 -42 -22.5 -63t-59.5 -21q-39 0 -61.5 21t-22.5 63z M721 1374q0 86 86 86q36 0 58 -21t22 -65q0 -42 -22 -63t-58 -21q-86 0 -86 84z" />
<glyph unicode="&#xfd;" horiz-adv-x="1079" d="M45 -344l25 104q79 -51 176 -51q82 0 128.5 51.5t84.5 163.5l28 86l-436 1061h148l350 -924l317 924h135l-423 -1175q-56 -154 -128 -228t-198 -74q-117 0 -207 62zM473 1237l143 281h136l-160 -281h-119z" />
<glyph unicode="&#xfe;" horiz-adv-x="1165" d="M172 -385v1839h131v-506q121 146 307 146q200 0 321.5 -149.5t121.5 -407.5q0 -259 -121 -406t-322 -147q-94 0 -173.5 38.5t-133.5 100.5v-508h-131zM303 238q41 -57 114.5 -96.5t155.5 -39.5q159 0 252 118t93 321q0 200 -93 316t-252 116q-82 0 -154.5 -39.5 t-115.5 -97.5v-598z" />
<glyph unicode="&#xff;" horiz-adv-x="1079" d="M45 -344l25 104q79 -51 176 -51q82 0 128.5 51.5t84.5 163.5l28 86l-436 1061h148l350 -924l317 924h135l-423 -1175q-56 -154 -128 -228t-198 -74q-117 0 -207 62zM244 1374q0 86 84 86q37 0 59.5 -21t22.5 -65q0 -42 -22.5 -63t-59.5 -21q-39 0 -61.5 21t-22.5 63z M680 1374q0 86 86 86q36 0 58 -21t22 -65q0 -42 -22 -63t-58 -21q-86 0 -86 84z" />
<glyph unicode="&#x152;" horiz-adv-x="2088" d="M113 694q0 203 78.5 368t216.5 258t309 93q209 0 358 -131v111h903v-121h-774v-490h647v-112h-647v-549h774v-121h-903v109q-151 -129 -358 -129q-171 0 -309 93t-216.5 256.5t-78.5 364.5zM240 694q0 -166 62 -300.5t173 -211t248 -76.5q222 0 352 154v870 q-130 154 -352 154q-209 0 -346 -167.5t-137 -422.5z" />
<glyph unicode="&#x153;" horiz-adv-x="1978" d="M113 532q0 260 131.5 414t347.5 154q162 0 279 -89.5t163 -246.5q45 154 157.5 245t270.5 91q102 0 180 -35t126 -96.5t72 -141.5t24 -174q0 -73 -19 -161h-733q2 -189 96.5 -299.5t274.5 -110.5q167 0 315 129l51 -98q-159 -142 -372 -142q-181 0 -292.5 86t-152.5 240 q-47 -154 -163.5 -240t-276.5 -86q-216 0 -347.5 151.5t-131.5 409.5zM240 532q0 -201 97.5 -318.5t256.5 -117.5q162 0 260 117t98 319q0 205 -98 324t-260 119q-159 0 -256.5 -119.5t-97.5 -323.5zM1118 592h625q8 54 8 82q0 85 -31 156t-98 117t-158 46q-157 0 -249 -110 t-97 -291z" />
<glyph unicode="&#x178;" horiz-adv-x="1214" d="M49 1380v13h150l409 -680l410 680h147v-13l-491 -788v-592h-133v590zM307 1696q0 86 84 86q37 0 59.5 -21t22.5 -65q0 -42 -22.5 -63t-59.5 -21q-39 0 -61.5 21t-22.5 63zM743 1696q0 86 86 86q36 0 58 -21t22 -65q0 -42 -22 -63t-58 -21q-86 0 -86 84z" />
<glyph unicode="&#x2c6;" horiz-adv-x="1044" d="M266 1237l189 281h135l186 -281h-112l-144 203l-141 -203h-113z" />
<glyph unicode="&#x2dc;" horiz-adv-x="1044" d="M225 1343q26 58 71.5 100t98.5 42q38 0 75 -21.5t62 -48t56 -48t59 -21.5q78 0 121 102l49 -59q-29 -63 -72 -102.5t-98 -39.5q-30 0 -59.5 14.5t-53 35t-46 40.5t-47 34.5t-46.5 14.5q-73 0 -123 -102z" />
<glyph unicode="&#x2000;" horiz-adv-x="919" />
<glyph unicode="&#x2001;" horiz-adv-x="1839" />
<glyph unicode="&#x2002;" horiz-adv-x="919" />
<glyph unicode="&#x2003;" horiz-adv-x="1839" />
<glyph unicode="&#x2004;" horiz-adv-x="613" />
<glyph unicode="&#x2005;" horiz-adv-x="459" />
<glyph unicode="&#x2006;" horiz-adv-x="306" />
<glyph unicode="&#x2007;" horiz-adv-x="306" />
<glyph unicode="&#x2008;" horiz-adv-x="229" />
<glyph unicode="&#x2009;" horiz-adv-x="367" />
<glyph unicode="&#x200a;" horiz-adv-x="102" />
<glyph unicode="&#x2010;" horiz-adv-x="952" d="M150 563v113h653v-113h-653z" />
<glyph unicode="&#x2011;" horiz-adv-x="952" d="M150 563v113h653v-113h-653z" />
<glyph unicode="&#x2012;" horiz-adv-x="952" d="M150 563v113h653v-113h-653z" />
<glyph unicode="&#x2013;" horiz-adv-x="1114" d="M150 563v113h815v-113h-815z" />
<glyph unicode="&#x2014;" horiz-adv-x="1519" d="M150 563v113h1220v-113h-1220z" />
<glyph unicode="&#x2018;" horiz-adv-x="462" d="M125 985q0 83 41 224t76 204l77 -35l-79 -286q44 -6 67 -35t23 -72q0 -57 -26.5 -87t-76.5 -30q-49 0 -75.5 32.5t-26.5 84.5z" />
<glyph unicode="&#x2019;" horiz-adv-x="458" d="M137 1292q0 56 27.5 86.5t75.5 30.5t76 -33t28 -84q0 -82 -42.5 -223t-78.5 -205l-78 35l80 289q-42 4 -65 33t-23 71z" />
<glyph unicode="&#x201a;" horiz-adv-x="485" d="M139 80q0 56 27.5 86.5t75.5 30.5t76 -33t28 -84q0 -82 -42.5 -223t-78.5 -205l-78 35l80 288q-42 4 -65 33t-23 72z" />
<glyph unicode="&#x201c;" horiz-adv-x="772" d="M125 1004q0 78 40 213.5t73 195.5l69 -31l-78 -280q41 -4 62.5 -31t21.5 -67q0 -111 -94 -111q-44 0 -69 31.5t-25 79.5zM449 1004q0 78 39.5 212.5t72.5 196.5l70 -31l-76 -280q40 -4 62 -31t22 -67q0 -53 -24.5 -82t-69.5 -29q-44 0 -70 32t-26 79z" />
<glyph unicode="&#x201d;" horiz-adv-x="765" d="M135 1300q0 53 24.5 81t69.5 28q44 0 69.5 -31t25.5 -78q0 -79 -39 -213.5t-70 -195.5l-72 31l76 280q-40 4 -62 31t-22 67zM461 1300q0 109 92 109q44 0 70 -31t26 -78q0 -78 -39 -213t-71 -196l-72 31l78 280q-41 4 -62.5 31t-21.5 67z" />
<glyph unicode="&#x201e;" horiz-adv-x="794" d="M141 61q0 54 24.5 82.5t70.5 28.5q44 0 69 -31t25 -80q0 -77 -39 -211.5t-70 -197.5l-71 31l75 282q-40 3 -62 30t-22 66zM467 61q0 54 24 82.5t68 28.5q45 0 70.5 -31t25.5 -80q0 -79 -39.5 -214.5t-72.5 -194.5l-70 31l78 282q-42 3 -63 29.5t-21 66.5z" />
<glyph unicode="&#x2022;" horiz-adv-x="684" d="M188 618q0 86 40 132.5t112 46.5q74 0 115 -46.5t41 -132.5q0 -88 -40.5 -133t-115.5 -45q-73 0 -112.5 45t-39.5 133z" />
<glyph unicode="&#x2026;" horiz-adv-x="1273" d="M141 80q0 52 26 81t71 29q47 0 73.5 -29t26.5 -81q0 -55 -26 -83t-74 -28q-45 0 -71 28.5t-26 82.5zM539 80q0 52 25 81t71 29q47 0 73.5 -29t26.5 -81q0 -55 -26 -83t-74 -28q-96 0 -96 111zM936 80q0 52 26 81t72 29t72.5 -29t26.5 -81q0 -54 -26 -82.5t-73 -28.5 t-72.5 28t-25.5 83z" />
<glyph unicode="&#x202f;" horiz-adv-x="367" />
<glyph unicode="&#x2039;" horiz-adv-x="567" d="M109 604v31l278 405h10l49 -41l-221 -378l221 -381l-49 -41h-10z" />
<glyph unicode="&#x203a;" horiz-adv-x="567" d="M121 240l221 381l-221 378l49 41h10l279 -405v-31l-279 -405h-10z" />
<glyph unicode="&#x205f;" horiz-adv-x="459" />
<glyph unicode="&#x20ac;" horiz-adv-x="1120" d="M106 520v90h89q-2 29 -2 88v64h-87v92h93q29 271 151.5 415t313.5 144q211 0 342 -131l-50 -111q-112 117 -280 117q-138 0 -227 -109.5t-113 -324.5h493l-34 -92h-467v-64q0 -59 2 -88h409l-30 -90h-371q27 -202 115 -308t221 -106q161 0 278 99l54 -107 q-148 -118 -344 -118q-185 0 -306 139.5t-153 400.5h-97z" />
<glyph unicode="&#x2122;" horiz-adv-x="1486" d="M139 1274v84h455v-84h-184v-543h-78v543h-193zM733 731v627h74l219 -318l219 318h74v-627h-80v486l-205 -295h-18l-203 295v-486h-80z" />
<glyph unicode="&#xe000;" horiz-adv-x="1075" d="M0 0v1075h1075v-1075h-1075z" />
<glyph unicode="&#xfb01;" horiz-adv-x="1257" d="M84 895v111h188v135q0 160 72 247t217 87q69 0 129.5 -26.5t100.5 -64.5l-39 -112q-84 84 -172 84q-87 0 -132 -54t-45 -157v-139h336v-111h-336v-895h-131v895h-188zM934 1376q0 88 90 88q84 0 84 -88q0 -86 -84 -86q-90 0 -90 86zM956 0v1071h131v-1071h-131z" />
<glyph unicode="&#xfb02;" horiz-adv-x="1345" d="M84 895v111h188v135q0 160 72 247t217 87q69 0 129.5 -26.5t100.5 -64.5l-39 -112q-84 84 -172 84q-87 0 -132 -54t-45 -157v-139h336v-111h-336v-895h-131v895h-188zM952 205v1249h133v-1221q0 -76 24.5 -106.5t74.5 -30.5q59 0 121 43l14 -106q-77 -53 -178 -53 q-94 0 -141.5 52.5t-47.5 172.5z" />
</font>
</defs>
</svg>
